<svg version="1" xmlns="http://www.w3.org/2000/svg" width="512" height="512" viewBox="0 0 5120 5120"><path d="M698 4718c-128-182-173-255-239-383-93-183-112-251-107-374 3-85 8-106 36-163 39-80 129-168 209-206 53-25 68-27 178-27s125 2 178 27c81 38 170 126 209 207 28 58 33 79 36 166 3 88 1 110-23 180-31 94-135 295-207 404-108 162-182 261-193 261-7 0-41-42-77-92zm190-570c49-33 86-104 86-168-1-124-126-222-242-191-84 22-141 84-157 171-7 39 13 105 45 150 52 73 186 92 268 38zM1610 4185v-125h3230v250H1610v-125zM698 3078c-128-182-173-255-239-383-93-183-112-251-107-374 3-85 8-106 36-163 39-80 129-168 209-206 53-25 68-27 178-27s125 2 178 27c81 38 170 126 209 207 28 58 33 79 36 166 3 88 1 110-23 180-31 94-135 295-207 404-108 162-182 261-193 261-7 0-41-42-77-92zm190-570c49-33 86-104 86-168-1-124-126-222-242-191-84 22-141 84-157 171-7 39 13 105 45 150 52 73 186 92 268 38zM1610 2545v-125h3230v250H1610v-125zM698 1508c-128-182-173-255-239-383-93-183-112-251-107-374 3-85 8-106 36-163 39-80 129-168 209-206 53-25 68-27 178-27s125 2 178 27c81 38 170 126 209 207 28 58 33 79 36 166 3 88 1 110-23 180-31 94-135 295-207 404-108 162-182 261-193 261-7 0-41-42-77-92zm190-570c49-33 86-104 86-168-1-124-126-222-242-191-84 22-141 84-157 171-7 39 13 105 45 150 52 73 186 92 268 38zM1610 975V850h3230v250H1610V975z"/></svg>