<svg version="1" xmlns="http://www.w3.org/2000/svg" width="512" height="512" fill="#a8a8a8" viewBox="0 0 5120 5120"><path d="M1926 4599C1096 3632 556 2781 434 2250c-47-206-27-494 51-729 80-239 208-444 390-626 238-238 529-390 853-446 157-26 398-26 555 1 500 85 928 404 1159 863 90 180 139 356 160 576 25 270-38 516-233 901-195 386-514 861-919 1369-216 271-429 521-444 521-6 0-42-37-80-81zm324-1958c258-87 447-286 522-548 18-62 22-103 22-203 0-148-15-214-79-345-99-204-277-353-501-417-102-30-303-32-403-4-280 77-499 296-572 574-29 108-29 278 0 386 59 219 205 404 401 505 143 73 222 91 390 87 109-3 137-7 220-35zM3522 4659c-53-27-115-96-130-147-18-60-14-151 8-200 12-27 68-93 145-171l124-127-120-119c-143-143-169-187-169-286 0-157 122-269 280-257 85 6 125 32 263 167l127 124 138-134c149-147 171-159 273-159 142 1 249 111 249 257 0 103-25 146-169 288l-120 119 124 127c144 146 164 182 165 282 0 81-18 128-68 181-53 55-103 76-187 76-104 0-139-21-285-165l-126-125-119 121c-143 144-185 169-290 169-51 0-81-6-113-21z"/></svg>